HIERARCHY
ROOT Hips
{
	OFFSET -3.958830 18.904000 13.208200
	CHANNELS 6 Xposition Yposition Zposition Zrotation Yrotation Xrotation 
	JOINT LHipJoint
	{
		OFFSET 0.000000 0.000000 0.000000
		CHANNELS 3 Zrotation Yrotation Xrotation
		JOINT LeftUpLeg
		{
			OFFSET 1.800000 -1.400000 0.085000
			CHANNELS 3 Zrotation Yrotation Xrotation
			JOINT LeftLeg
			{
				OFFSET 2.215000 -6.000000 0.000000
				CHANNELS 3 Zrotation Yrotation Xrotation
				JOINT LeftFoot
				{
					OFFSET 2.500000 -6.900000 0.000000
					CHANNELS 3 Zrotation Yrotation Xrotation
					JOINT LeftToeBase
					{
						OFFSET 0.200000 -0.500000 1.950000
						CHANNELS 3 Zrotation Yrotation Xrotation
						End Site
						{
							OFFSET 0.000000 0.000000 0.000000
						}
					}
				}
			}
		}
	}
	JOINT RHipJoint
	{
		OFFSET 0.000000 0.000000 0.000000
		CHANNELS 3 Zrotation Yrotation Xrotation
		JOINT RightUpLeg
		{
			OFFSET -1.800000 -1.400000 0.085000
			CHANNELS 3 Zrotation Yrotation Xrotation
			JOINT RightLeg
			{
				OFFSET -2.215000 -6.000000 0.000000
				CHANNELS 3 Zrotation Yrotation Xrotation
				JOINT RightFoot
				{
					OFFSET -2.500000 -6.900000 0.000000
					CHANNELS 3 Zrotation Yrotation Xrotation
					JOINT RightToeBase
					{
						OFFSET -0.200000 -0.500000 1.950000
						CHANNELS 3 Zrotation Yrotation Xrotation
						End Site
						{
							OFFSET 0.000000 0.000000 0.000000
						}
					}
				}
			}
		}
	}
	JOINT LowerBack
	{
		OFFSET 0.000000 0.000000 0.000000
		CHANNELS 3 Zrotation Yrotation Xrotation
		JOINT Spine
		{
			OFFSET -0.087000 1.940000 -0.288900
			CHANNELS 3 Zrotation Yrotation Xrotation
			JOINT Spine1
			{
				OFFSET 0.000000 1.950000 0.060000
				CHANNELS 3 Zrotation Yrotation Xrotation
				JOINT Neck
				{
					OFFSET 0.000000 0.000000 0.000000
					CHANNELS 3 Zrotation Yrotation Xrotation
					JOINT Neck1
					{
						OFFSET 0.000000 1.600000 0.340000
						CHANNELS 3 Zrotation Yrotation Xrotation
						JOINT Head
						{
							OFFSET 0.000000 1.667000 -0.240000
							CHANNELS 3 Zrotation Yrotation Xrotation
							End Site
							{
								OFFSET 0.000000 0.000000 0.000000
							}
						}
					}
				}
				JOINT LeftShoulder
				{
					OFFSET 0.000000 0.000000 0.000000
					CHANNELS 3 Zrotation Yrotation Xrotation
					JOINT LeftArm
					{
						OFFSET 2.700000 1.550000 -0.730000
						CHANNELS 3 Zrotation Yrotation Xrotation
						JOINT LeftForeArm
						{
							OFFSET 5.450000 0.000000 0.000000
							CHANNELS 3 Zrotation Yrotation Xrotation
							JOINT LeftHand
							{
								OFFSET 3.450000 0.000000 0.000000
								CHANNELS 3 Zrotation Yrotation Xrotation
								JOINT LeftHandIndex1
								{
									OFFSET 0.750000 0.000000 0.000000
									CHANNELS 3 Zrotation Yrotation Xrotation
									End Site
									{
										OFFSET 0.000000 0.000000 0.000000
									}
								}
							}
						}
					}
				}
				JOINT RightShoulder
				{
					OFFSET 0.000000 0.000000 0.000000
					CHANNELS 3 Zrotation Yrotation Xrotation
					JOINT RightArm
					{
						OFFSET -2.700000 1.550000 -0.730000
						CHANNELS 3 Zrotation Yrotation Xrotation
						JOINT RightForeArm
						{
							OFFSET -5.450000 0.000000 0.000000
							CHANNELS 3 Zrotation Yrotation Xrotation
							JOINT RightHand
							{
								OFFSET -3.450000 0.000000 0.000000
								CHANNELS 3 Zrotation Yrotation Xrotation
								JOINT RightHandIndex1
								{
									OFFSET -0.750000 0.000000 0.000000
									CHANNELS 3 Zrotation Yrotation Xrotation
									End Site
									{
										OFFSET 0.000000 0.000000 0.000000
									}
								}
							}
						}
					}
				}
			}
		}
	}
}
MOTION
Frames: 4
Frame Time: 0.016667
-0.110650 16.426630 -2.012390 -1.675278 6.955297 0.859299 -14.947419 12.844855 2.490897 4.559337 -2.373473 -16.577774 -5.706448 7.255538 24.365432 -1.123518 5.902314 2.943006 0.455170 -0.423220 0.211870 18.573851 -11.253713 2.679710 -1.556318 1.870507 -15.758772 4.173716 -4.320890 11.442686 0.094634 -3.446704 3.773382 0.179520 0.938730 0.333670 -4.446477 -0.079798 -6.449479 12.092742 0.454988 3.324670 -5.091312 0.676312 9.019916 1.848830 -0.350845 -4.015469 -0.919671 -0.313689 27.325307 -4.355350 -1.986110 0.161420 -20.683005 4.161309 0.800600 -46.017480 11.688732 -12.472019 -28.643011 -39.042328 4.860884 -4.221743 3.088681 0.622080 0.710570 -0.689950 0.487810 17.103827 -4.614716 0.292454 53.153202 -2.096619 -11.915304 25.372381 32.454211 3.205554 1.268874 -1.675970 -0.702220 0.520950 0.207550 -0.501390 
-0.076810 16.334550 -2.007820 -1.517740 8.437586 1.457495 -14.982393 12.860562 2.427270 4.731495 -2.225428 -15.395545 -5.973747 7.278639 23.787656 -1.154322 5.941693 2.946926 0.512190 -0.352230 0.226140 18.556255 -11.161486 2.702341 -1.335635 2.207175 -17.409344 4.203982 -4.115222 11.172877 0.127149 -3.329075 3.793919 0.251730 0.962470 0.328130 -4.392835 -0.183551 -6.383517 11.685285 0.136291 2.809152 -5.205164 0.315855 8.530620 1.787808 -0.644405 -3.327348 -1.221360 -0.208301 25.676181 -4.067070 -2.352270 -0.331860 -21.278195 5.175631 -0.070650 -46.965566 9.585403 -11.725496 -26.472392 -39.199951 4.393455 -4.251356 3.097725 0.595490 0.727640 -0.714920 0.516400 17.806462 -5.567468 -0.175182 52.872576 -2.417219 -11.653279 21.945646 31.038577 2.195713 1.248051 -1.689545 -0.713110 0.544940 0.186600 -0.494110 
-0.045070 16.233050 -2.023800 -1.465461 10.063764 1.567186 -15.000458 12.908197 2.455841 5.345329 -2.281116 -14.767259 -6.878631 7.829854 24.712826 -1.141753 6.246536 2.822385 0.577130 -0.297010 0.269560 18.536171 -11.076361 2.704062 -1.222056 2.737192 -19.883163 4.116441 -4.208400 13.518368 0.128609 -3.228339 3.793252 0.294710 0.933490 0.315720 -4.368815 -0.377602 -6.428283 11.881774 -0.461360 3.472812 -5.508275 -0.148153 7.498271 1.564463 -1.393091 -2.703362 -2.525138 -0.170232 25.234484 -3.384960 -3.115390 -1.911480 -22.273773 5.953042 -1.137029 -47.015663 6.974130 -10.520853 -24.896935 -38.846173 4.069400 -4.227723 3.063288 0.643850 0.682910 -0.690510 0.530150 19.051481 -6.008259 -0.374745 52.142677 -3.218123 -11.932906 18.306018 30.742437 1.450072 1.229662 -1.647982 -0.721640 0.573190 0.166030 -0.506720 
-0.017570 16.121640 -2.053880 -1.337494 12.085232 1.499324 -15.019495 12.955306 2.514926 5.759754 -2.469231 -14.295265 -7.558791 8.507216 26.563570 -1.081603 6.611697 2.652005 0.638930 -0.235980 0.331350 18.504926 -10.968121 2.774537 -1.757512 3.609862 -23.916551 4.644167 -4.796679 18.444001 0.081957 -3.312661 3.692471 0.316980 0.854650 0.297570 -4.341678 -0.579032 -6.579860 11.909900 -1.162378 5.018282 -6.058910 -0.588876 6.022885 1.589882 -1.790429 -2.252952 -3.274002 -0.411798 25.221009 -2.541580 -3.761320 -4.162090 -23.748655 6.153244 -2.074686 -46.340929 4.442369 -9.359039 -23.936689 -39.394223 4.166340 -4.157071 3.039572 0.712260 0.597810 -0.627250 0.521700 20.286052 -6.126057 -0.465752 51.229490 -3.667766 -11.870662 15.511677 29.780761 0.910736 1.252833 -1.584780 -0.708400 0.581780 0.138250 -0.522990 
